<?xml version="1.0" encoding="iso-8859-1"?>
<!-- Generator: Adobe Illustrator 19.0.0, SVG Export Plug-In . SVG Version: 6.00 Build 0)  -->
<svg version="1.1" id="Capa_1" xmlns="http://www.w3.org/2000/svg" xmlns:xlink="http://www.w3.org/1999/xlink" x="0px" y="0px"
	 viewBox="0 0 512.001 512.001" style="enable-background:new 0 0 512.001 512.001;" xml:space="preserve">
<path style="fill:#E3E3E3;" d="M379.001,338.876v-80.12l-123,80v-80l-116.5,75.68l-9.56-118.56h-96.61l-0.26-0.02l-19.84,246.01
	c0.097,0.01,0.1,0.01,0.1,0.01l-0.1-0.01l-3.23,40.01h143h349v-243L379.001,338.876z M149.671,461.876L149.671,461.876l0.1-0.01
	L149.671,461.876z"/>
<g>
	<rect x="399.001" y="378.871" style="fill:#4DBBEB;" width="63" height="40"/>
	<rect x="296.001" y="378.871" style="fill:#4DBBEB;" width="63" height="40"/>
	<rect x="196.001" y="378.871" style="fill:#4DBBEB;" width="60" height="40"/>
</g>
<g>
	<path style="fill:#FD6244;" d="M149.771,461.866l3.23,40.01h-143l3.23-40.01c0.152,0.015,136.287,0.01,136.44,0.01L149.771,461.866
		z"/>
	<polygon style="fill:#FD6244;" points="126.471,172.866 129.941,215.876 33.331,215.876 33.071,215.856 36.531,172.866 
		36.671,172.876 126.331,172.876 	"/>
</g>
<polygon style="fill:#E3E3E3;" points="123.001,129.876 126.471,172.866 126.331,172.876 36.671,172.876 36.531,172.866 
	40.001,129.876 "/>
<path d="M196.001,451.876c-5.52,0-10,4.48-10,10s4.48,10,10,10s10-4.48,10-10S201.521,451.876,196.001,451.876z"/>
<path d="M506.77,250.086c-3.226-1.749-7.147-1.592-10.221,0.407l-107.548,69.95v-61.687c0-3.667-2.008-7.041-5.231-8.79
	c-3.225-1.748-7.146-1.592-10.221,0.407l-107.548,69.95v-61.567c0-3.666-2.007-7.039-5.229-8.789
	c-3.222-1.749-7.144-1.596-10.218,0.403l-102.436,66.544c-0.578-7.172-15.009-186.108-15.149-187.843
	c-0.419-5.194-4.757-9.195-9.968-9.195h-83c-5.211,0-9.549,4.001-9.968,9.195l-30,372c-0.225,2.783,0.725,5.533,2.618,7.585
	s4.558,3.219,7.35,3.219c6.479,0,461.148,0,492,0c5.522,0,10-4.477,10-10v-243C512.001,255.209,509.993,251.835,506.77,250.086z
	 M119.098,205.876H43.905l1.855-23h71.484L119.098,205.876z M42.292,225.876h78.419c0.691,8.563,17.251,213.922,18.225,226H24.067
	L42.292,225.876z M113.776,139.876l1.855,23H47.372l1.855-23H113.776z M20.841,491.876l1.613-20h118.095l1.613,20H20.841z
	 M492.001,491.876H162.227l-12.282-152.3l96.056-62.399v61.579c0,3.667,2.008,7.041,5.231,8.79
	c3.226,1.749,7.147,1.593,10.221-0.407l107.548-69.95v61.687c0,3.667,2.008,7.041,5.231,8.79c3.223,1.747,7.146,1.593,10.221-0.407
	l107.548-69.95V491.876z"/>
<path d="M196.001,428.876h60c5.522,0,10-4.477,10-10v-40c0-5.523-4.478-10-10-10h-60c-5.522,0-10,4.477-10,10v40
	C186.001,424.399,190.479,428.876,196.001,428.876z M206.001,388.876h40v20h-40V388.876z"/>
<path d="M296.001,428.876h63c5.522,0,10-4.477,10-10v-40c0-5.523-4.478-10-10-10h-63c-5.522,0-10,4.477-10,10v40
	C286.001,424.399,290.479,428.876,296.001,428.876z M306.001,388.876h43v20h-43V388.876z"/>
<path d="M399.001,428.876h63c5.522,0,10-4.477,10-10v-40c0-5.523-4.478-10-10-10h-63c-5.522,0-10,4.477-10,10v40
	C389.001,424.399,393.479,428.876,399.001,428.876z M409.001,388.876h43v20h-43V388.876z"/>
<path d="M54.001,79.876c5.522,0,10-4.477,10-10c0-16.542,13.458-30,30-30h122c8.032,0,15.872-3.271,21.509-8.975
	c5.568-5.635,8.583-13.055,8.49-20.894c-0.064-5.482-4.528-9.881-9.997-9.881c-0.039,0-0.08,0-0.12,0
	c-5.522,0.066-9.946,4.596-9.881,10.118c0.029,2.452-0.937,4.795-2.719,6.598c-1.904,1.928-4.559,3.033-7.282,3.033h-122
	c-27.57,0-50,22.43-50,50C44.001,75.399,48.479,79.876,54.001,79.876z"/>
<path d="M235.99,59.756l-111.989,0.12c-16.542,0-30,13.458-30,30c0,5.523,4.478,10,10,10s10-4.477,10-10c0-5.514,4.486-10,10.011-10
	l111.989-0.12c16.542,0,30-13.243,30-29.52v-0.23c0-5.523-4.478-10-10-10s-10,4.477-10,10v0.23
	C246.001,55.485,241.515,59.756,235.99,59.756z"/>
<path d="M462.001,451.876h-226c-5.522,0-10,4.477-10,10s4.478,10,10,10h226c5.522,0,10-4.477,10-10S467.524,451.876,462.001,451.876
	z"/>
<path d="M70.001,288.876h23c5.522,0,10-4.477,10-10s-4.478-10-10-10h-23c-5.522,0-10,4.477-10,10S64.479,288.876,70.001,288.876z"/>
<path d="M70.001,328.876h23c5.522,0,10-4.477,10-10s-4.478-10-10-10h-23c-5.522,0-10,4.477-10,10S64.479,328.876,70.001,328.876z"/>
<path d="M70.001,368.876h23c5.522,0,10-4.477,10-10s-4.478-10-10-10h-23c-5.522,0-10,4.477-10,10S64.479,368.876,70.001,368.876z"/>
<path d="M93.001,388.876h-23c-5.522,0-10,4.477-10,10s4.478,10,10,10h23c5.522,0,10-4.477,10-10S98.524,388.876,93.001,388.876z"/>
<g>
</g>
<g>
</g>
<g>
</g>
<g>
</g>
<g>
</g>
<g>
</g>
<g>
</g>
<g>
</g>
<g>
</g>
<g>
</g>
<g>
</g>
<g>
</g>
<g>
</g>
<g>
</g>
<g>
</g>
</svg>
